<mxfile host="app.diagrams.net" modified="2023-09-11T22:33:35.600Z" agent="Mozilla/5.0 (Windows NT 10.0; Win64; x64) AppleWebKit/537.36 (KHTML, like Gecko) Chrome/116.0.0.0 Safari/537.36" etag="UIDmuTJLNdzdjmtSb8uJ" version="21.7.2" type="github">
  <diagram name="Page-1" id="gkSESGeMCVlHPHlFD8zD">
    <mxGraphModel dx="1434" dy="796" grid="1" gridSize="10" guides="1" tooltips="1" connect="1" arrows="1" fold="1" page="1" pageScale="1" pageWidth="827" pageHeight="1169" math="0" shadow="0">
      <root>
        <mxCell id="0" />
        <mxCell id="1" parent="0" />
        <mxCell id="ECAvU6gTWFiU1ir9LPon-1" value="" style="shape=folder;fontStyle=1;tabWidth=80;tabHeight=30;tabPosition=left;html=1;boundedLbl=1;whiteSpace=wrap;" vertex="1" parent="1">
          <mxGeometry x="55" y="50" width="740" height="590" as="geometry" />
        </mxCell>
        <mxCell id="ECAvU6gTWFiU1ir9LPon-2" value="&lt;font style=&quot;font-size: 18px;&quot;&gt;Commande&lt;/font&gt;" style="shape=folder;fontStyle=1;tabWidth=80;tabHeight=30;tabPosition=left;html=1;boundedLbl=1;whiteSpace=wrap;" vertex="1" parent="1">
          <mxGeometry x="550" y="340" width="150" height="80" as="geometry" />
        </mxCell>
        <mxCell id="ECAvU6gTWFiU1ir9LPon-7" style="edgeStyle=orthogonalEdgeStyle;rounded=1;orthogonalLoop=1;jettySize=auto;html=1;exitX=0.5;exitY=1;exitDx=0;exitDy=0;exitPerimeter=0;entryX=0.707;entryY=0.375;entryDx=0;entryDy=0;entryPerimeter=0;dashed=1;endSize=11;endArrow=block;endFill=0;" edge="1" parent="1" source="ECAvU6gTWFiU1ir9LPon-3" target="ECAvU6gTWFiU1ir9LPon-4">
          <mxGeometry relative="1" as="geometry" />
        </mxCell>
        <mxCell id="ECAvU6gTWFiU1ir9LPon-8" style="edgeStyle=orthogonalEdgeStyle;rounded=1;orthogonalLoop=1;jettySize=auto;html=1;exitX=0.5;exitY=1;exitDx=0;exitDy=0;exitPerimeter=0;entryX=0.653;entryY=0.35;entryDx=0;entryDy=0;entryPerimeter=0;endArrow=block;endFill=0;endSize=14;" edge="1" parent="1" source="ECAvU6gTWFiU1ir9LPon-3" target="ECAvU6gTWFiU1ir9LPon-2">
          <mxGeometry relative="1" as="geometry" />
        </mxCell>
        <mxCell id="ECAvU6gTWFiU1ir9LPon-3" value="&lt;font style=&quot;font-size: 18px;&quot;&gt;Utilisateur&lt;/font&gt;" style="shape=folder;fontStyle=1;tabWidth=80;tabHeight=30;tabPosition=left;html=1;boundedLbl=1;whiteSpace=wrap;" vertex="1" parent="1">
          <mxGeometry x="350" y="130" width="150" height="80" as="geometry" />
        </mxCell>
        <mxCell id="ECAvU6gTWFiU1ir9LPon-4" value="&lt;font style=&quot;font-size: 18px;&quot;&gt;Cathegorie&lt;/font&gt;" style="shape=folder;fontStyle=1;tabWidth=80;tabHeight=30;tabPosition=left;html=1;boundedLbl=1;whiteSpace=wrap;" vertex="1" parent="1">
          <mxGeometry x="180" y="340" width="150" height="80" as="geometry" />
        </mxCell>
        <mxCell id="ECAvU6gTWFiU1ir9LPon-9" style="edgeStyle=orthogonalEdgeStyle;rounded=1;orthogonalLoop=1;jettySize=auto;html=1;exitX=0;exitY=0;exitDx=115;exitDy=30;exitPerimeter=0;entryX=0.4;entryY=1.013;entryDx=0;entryDy=0;entryPerimeter=0;dashed=1;endArrow=open;endFill=0;" edge="1" parent="1" source="ECAvU6gTWFiU1ir9LPon-5" target="ECAvU6gTWFiU1ir9LPon-4">
          <mxGeometry relative="1" as="geometry" />
        </mxCell>
        <mxCell id="ECAvU6gTWFiU1ir9LPon-10" style="edgeStyle=orthogonalEdgeStyle;rounded=1;orthogonalLoop=1;jettySize=auto;html=1;exitX=0;exitY=0;exitDx=115;exitDy=30;exitPerimeter=0;entryX=0.5;entryY=1;entryDx=0;entryDy=0;entryPerimeter=0;endArrow=open;endFill=0;dashed=1;strokeWidth=2;endSize=10;" edge="1" parent="1" source="ECAvU6gTWFiU1ir9LPon-5" target="ECAvU6gTWFiU1ir9LPon-2">
          <mxGeometry relative="1" as="geometry" />
        </mxCell>
        <mxCell id="ECAvU6gTWFiU1ir9LPon-5" value="&lt;font style=&quot;font-size: 18px;&quot;&gt;Pagne&lt;/font&gt;" style="shape=folder;fontStyle=1;tabWidth=80;tabHeight=30;tabPosition=left;html=1;boundedLbl=1;whiteSpace=wrap;" vertex="1" parent="1">
          <mxGeometry x="220" y="500" width="150" height="80" as="geometry" />
        </mxCell>
      </root>
    </mxGraphModel>
  </diagram>
</mxfile>
